<svg id="Calque_1" data-name="Calque 1" xmlns="http://www.w3.org/2000/svg" xmlns:xlink="http://www.w3.org/1999/xlink" viewBox="0 0 169.85 497.91"><defs><style>.cls-1{fill-rule:evenodd;fill:url(#linear-gradient);}.cls-2{fill:url(#linear-gradient-2);}.cls-3{fill:url(#linear-gradient-3);}.cls-4{fill:url(#linear-gradient-4);}.cls-5{fill:url(#linear-gradient-5);}.cls-6{fill:url(#linear-gradient-6);}.cls-7{fill:url(#Dégradé_sans_nom_14);}.cls-8{fill:url(#Dégradé_sans_nom_14-2);}.cls-9{fill:url(#Dégradé_sans_nom_14-3);}.cls-10{fill:url(#linear-gradient-7);}.cls-11{fill:url(#linear-gradient-8);}.cls-12{fill:url(#linear-gradient-9);}.cls-13{fill:url(#Dégradé_sans_nom_14-4);}.cls-14{fill:url(#Dégradé_sans_nom_14-5);}.cls-15{fill:url(#Dégradé_sans_nom_14-6);}.cls-16{fill:#323131;opacity:0.5;}.cls-17{fill:url(#Dégradé_sans_nom_46);}.cls-18{fill:url(#Dégradé_sans_nom_37);}.cls-19{fill:url(#Dégradé_sans_nom_32);}.cls-20{fill:url(#linear-gradient-10);}.cls-21{fill:url(#linear-gradient-11);}.cls-22{fill:url(#linear-gradient-12);}.cls-23{fill:url(#linear-gradient-13);}.cls-24{fill:url(#linear-gradient-14);}.cls-25{fill:url(#linear-gradient-15);}.cls-26{fill:url(#linear-gradient-16);}.cls-27{fill:url(#linear-gradient-17);}.cls-28{fill:url(#linear-gradient-18);}.cls-29{fill:url(#linear-gradient-19);}.cls-30{fill:url(#linear-gradient-20);}.cls-31{fill:url(#linear-gradient-21);}.cls-32{fill:url(#linear-gradient-22);}.cls-33{fill:url(#linear-gradient-23);}.cls-34{fill:url(#linear-gradient-24);}.cls-35{fill:url(#linear-gradient-25);}.cls-36{fill:url(#linear-gradient-26);}.cls-37{fill:url(#linear-gradient-27);}.cls-38{fill:url(#linear-gradient-28);}.cls-39{fill:url(#linear-gradient-29);}.cls-40{fill:url(#linear-gradient-30);}.cls-41{fill:url(#linear-gradient-31);}.cls-42{fill:url(#linear-gradient-32);}.cls-43{fill:url(#linear-gradient-33);}.cls-44{fill:url(#radial-gradient);}.cls-45{fill:url(#Dégradé_sans_nom_73);}.cls-46{fill:url(#Dégradé_sans_nom_60);}</style><linearGradient id="linear-gradient" x1="84.9" y1="313.85" x2="84.9" y2="277.66" gradientUnits="userSpaceOnUse"><stop offset="0" stop-color="#5b0001"/><stop offset="0.97" stop-color="#fb0000"/><stop offset="1" stop-color="red"/></linearGradient><linearGradient id="linear-gradient-2" x1="83.85" y1="443.75" x2="83.85" y2="311.84" gradientUnits="userSpaceOnUse"><stop offset="0" stop-color="#ff8000"/><stop offset="0.31" stop-color="#fba50e"/><stop offset="1" stop-color="#f2f52c"/></linearGradient><linearGradient id="linear-gradient-3" x1="83.85" y1="369.74" x2="83.85" y2="270.09" xlink:href="#linear-gradient-2"/><linearGradient id="linear-gradient-4" x1="1311.59" y1="351.39" x2="1311.59" y2="374.26" gradientTransform="matrix(-1, -0.05, -0.05, 1, 1400.45, 35.25)" xlink:href="#linear-gradient-2"/><linearGradient id="linear-gradient-5" x1="143.95" y1="293.99" x2="143.95" y2="316.86" gradientTransform="translate(-63.7 35.25) rotate(-2.81)" xlink:href="#linear-gradient-2"/><linearGradient id="linear-gradient-6" x1="83.85" y1="349.91" x2="83.85" y2="279.72" gradientUnits="userSpaceOnUse"><stop offset="0" stop-color="#f2f52c"/><stop offset="0.5" stop-color="#f2f57c"/><stop offset="1" stop-color="#f2f6d0"/></linearGradient><linearGradient id="Dégradé_sans_nom_14" x1="-698.02" y1="283" x2="-726.24" y2="311.21" gradientTransform="matrix(-1, 0, 0, 1, -554.54, 0)" gradientUnits="userSpaceOnUse"><stop offset="0" stop-color="#e9c601"/><stop offset="1" stop-color="#ff7900"/></linearGradient><linearGradient id="Dégradé_sans_nom_14-2" x1="164.9" y1="274.4" x2="130.31" y2="274.4" gradientTransform="matrix(1, 0, 0, 1, 0, 0)" xlink:href="#Dégradé_sans_nom_14"/><linearGradient id="Dégradé_sans_nom_14-3" x1="49.28" y1="267.78" x2="128.89" y2="267.78" gradientTransform="matrix(1, 0, 0, 1, 0, 0)" xlink:href="#Dégradé_sans_nom_14"/><linearGradient id="linear-gradient-7" x1="26.27" y1="283" x2="-1.94" y2="311.21" xlink:href="#linear-gradient"/><linearGradient id="linear-gradient-8" x1="3.97" y1="274.4" x2="51.68" y2="274.4" gradientUnits="userSpaceOnUse"><stop offset="0" stop-color="#fbaaad"/><stop offset="0.92" stop-color="#ff0d0d"/><stop offset="1" stop-color="red"/></linearGradient><linearGradient id="linear-gradient-9" x1="49.54" y1="267.78" x2="123.53" y2="267.78" xlink:href="#linear-gradient"/><linearGradient id="Dégradé_sans_nom_14-4" x1="58.94" y1="156.6" x2="126.83" y2="156.6" gradientTransform="matrix(1, 0, 0, 1, 0, 0)" xlink:href="#Dégradé_sans_nom_14"/><linearGradient id="Dégradé_sans_nom_14-5" x1="82.23" y1="245.71" x2="82.23" y2="156.72" gradientTransform="matrix(1, 0, 0, 1, 0, 0)" xlink:href="#Dégradé_sans_nom_14"/><linearGradient id="Dégradé_sans_nom_14-6" x1="37.81" y1="161.41" x2="123.04" y2="161.41" gradientTransform="matrix(1, 0, 0, 1, 0, 0)" xlink:href="#Dégradé_sans_nom_14"/><radialGradient id="Dégradé_sans_nom_46" cx="80.03" cy="155.58" r="110.39" gradientTransform="translate(0.46)" gradientUnits="userSpaceOnUse"><stop offset="0" stop-color="#fbdc07"/><stop offset="1" stop-color="#ff8c00"/></radialGradient><linearGradient id="Dégradé_sans_nom_37" x1="116.32" y1="104.81" x2="116.32" y2="223.96" gradientUnits="userSpaceOnUse"><stop offset="0" stop-color="#fdffff"/><stop offset="0.51" stop-color="#fbbb51"/><stop offset="0.76" stop-color="#fa9c00"/></linearGradient><radialGradient id="Dégradé_sans_nom_32" cx="80.03" cy="155.58" r="110.4" gradientTransform="translate(0.46)" gradientUnits="userSpaceOnUse"><stop offset="0" stop-color="#fb7509"/><stop offset="1" stop-color="#ff721f"/></radialGradient><linearGradient id="linear-gradient-10" x1="-383.69" y1="-1001.55" x2="-353.04" y2="-970.89" gradientTransform="translate(452.77 1148.72)" gradientUnits="userSpaceOnUse"><stop offset="0.24" stop-color="#b3e2ee"/><stop offset="1" stop-color="#e6f5f9"/></linearGradient><linearGradient id="linear-gradient-11" x1="-388.67" y1="-980.34" x2="-344.95" y2="-980.34" gradientTransform="translate(452.77 1148.72)" gradientUnits="userSpaceOnUse"><stop offset="0" stop-color="#e6f5f9"/><stop offset="0.76" stop-color="#b3e2ee"/></linearGradient><linearGradient id="linear-gradient-12" x1="66.8" y1="145.02" x2="100.56" y2="145.02" xlink:href="#linear-gradient"/><linearGradient id="linear-gradient-13" x1="-693.91" y1="287.14" x2="-722.11" y2="315.34" gradientTransform="matrix(-1, 0, 0, 1, -554.54, 0)" gradientUnits="userSpaceOnUse"><stop offset="0" stop-color="#070606"/><stop offset="1" stop-color="#6c6360"/></linearGradient><linearGradient id="linear-gradient-14" x1="-703.16" y1="277.86" x2="-731.37" y2="306.07" xlink:href="#linear-gradient-13"/><linearGradient id="linear-gradient-15" x1="164.9" y1="275.85" x2="130.31" y2="275.85" gradientTransform="matrix(1, 0, 0, 1, 0, 0)" xlink:href="#linear-gradient-13"/><linearGradient id="linear-gradient-16" x1="-706.12" y1="274.9" x2="-734.33" y2="303.12" xlink:href="#linear-gradient-13"/><linearGradient id="linear-gradient-17" x1="164.9" y1="269.56" x2="130.31" y2="269.56" gradientTransform="matrix(1, 0, 0, 1, 0, 0)" xlink:href="#linear-gradient-13"/><linearGradient id="linear-gradient-18" x1="49.28" y1="269.56" x2="128.89" y2="269.56" gradientTransform="matrix(1, 0, 0, 1, 0, 0)" xlink:href="#linear-gradient-13"/><linearGradient id="linear-gradient-19" x1="30.38" y1="287.14" x2="2.18" y2="315.34" gradientTransform="matrix(1, 0, 0, 1, 0, 0)" xlink:href="#linear-gradient-13"/><linearGradient id="linear-gradient-20" x1="21.13" y1="277.86" x2="-7.08" y2="306.07" gradientTransform="matrix(1, 0, 0, 1, 0, 0)" xlink:href="#linear-gradient-13"/><linearGradient id="linear-gradient-21" x1="3.97" y1="275.83" x2="51.69" y2="275.83" gradientUnits="userSpaceOnUse"><stop offset="0" stop-color="#7a716e"/><stop offset="1" stop-color="#6c6360"/></linearGradient><linearGradient id="linear-gradient-22" x1="18.17" y1="274.9" x2="-10.04" y2="303.12" gradientTransform="matrix(1, 0, 0, 1, 0, 0)" xlink:href="#linear-gradient-13"/><linearGradient id="linear-gradient-23" x1="3.97" y1="269.55" x2="51.69" y2="269.55" xlink:href="#linear-gradient-21"/><linearGradient id="linear-gradient-24" x1="49.54" y1="269.55" x2="123.53" y2="269.55" gradientTransform="matrix(1, 0, 0, 1, 0, 0)" xlink:href="#linear-gradient-13"/><linearGradient id="linear-gradient-25" x1="58.95" y1="44.64" x2="126.83" y2="44.64" gradientTransform="matrix(1, 0, 0, 1, 0, 0)" xlink:href="#linear-gradient-13"/><linearGradient id="linear-gradient-26" x1="58.95" y1="46.6" x2="126.83" y2="46.6" gradientTransform="matrix(1, 0, 0, 1, 0, 0)" xlink:href="#linear-gradient-13"/><linearGradient id="linear-gradient-27" x1="81.69" y1="249.24" x2="81.69" y2="158.94" gradientTransform="matrix(1, 0, 0, 1, 0, 0)" xlink:href="#linear-gradient-13"/><linearGradient id="linear-gradient-28" x1="58.95" y1="50.56" x2="126.83" y2="50.56" gradientTransform="matrix(1, 0, 0, 1, 0, 0)" xlink:href="#linear-gradient-13"/><linearGradient id="linear-gradient-29" x1="86.96" y1="249.24" x2="86.96" y2="158.94" gradientTransform="matrix(1, 0, 0, 1, 0, 0)" xlink:href="#linear-gradient-13"/><linearGradient id="linear-gradient-30" x1="37.81" y1="50.56" x2="123.04" y2="50.56" gradientTransform="matrix(1, 0, 0, 1, 0, 0)" xlink:href="#linear-gradient-13"/><linearGradient id="linear-gradient-31" x1="58.95" y1="60.74" x2="126.83" y2="60.74" gradientTransform="matrix(1, 0, 0, 1, 0, 0)" xlink:href="#linear-gradient-13"/><linearGradient id="linear-gradient-32" x1="70.21" y1="249.24" x2="70.21" y2="158.94" gradientTransform="matrix(1, 0, 0, 1, 0, 0)" xlink:href="#linear-gradient-13"/><linearGradient id="linear-gradient-33" x1="37.81" y1="60.74" x2="123.04" y2="60.74" gradientTransform="matrix(1, 0, 0, 1, 0, 0)" xlink:href="#linear-gradient-13"/><radialGradient id="radial-gradient" cx="80.03" cy="155.58" r="110.39" gradientTransform="translate(0.46)" xlink:href="#linear-gradient-21"/><linearGradient id="Dégradé_sans_nom_73" x1="85.23" y1="293.16" x2="85.23" y2="247.55" gradientUnits="userSpaceOnUse"><stop offset="0" stop-color="#a92c01"/><stop offset="1" stop-color="#ff8d00"/></linearGradient><linearGradient id="Dégradé_sans_nom_60" x1="38.3" y1="283.05" x2="119.71" y2="283.05" gradientUnits="userSpaceOnUse"><stop offset="0" stop-color="#ff4701"/><stop offset="1" stop-color="#ff9000"/></linearGradient></defs><title>rocket2</title><path class="cls-1" d="M127.31,322.19c0,4.66-19,8.43-42.41,8.43s-42.42-3.77-42.42-8.43,19-8.43,42.42-8.43S127.31,317.53,127.31,322.19Z" transform="translate(0.05 0.71)"/><path class="cls-2" d="M108.76,399.54l-2-24.94s.31,37.57-13.46,86l1.38-35.14S83.85,492,83.85,497.21C83.85,492,73,425.46,73,425.46l1.38,35.14c-13.76-48.43-13.45-86-13.45-86l-2,24.94c-14.06-51.67,5.63-98.44,5.63-98.44h38.57S122.83,347.87,108.76,399.54Z" transform="translate(0.05 0.71)"/><path class="cls-3" d="M98.21,369.66l-1.14-14.38s.18,21.66-7.76,49.59l.79-20.27S83.85,423,83.85,426c0-3-6.26-41.38-6.26-41.38l.79,20.27c-7.93-27.93-7.76-49.59-7.76-49.59l-1.14,14.38c-8.11-29.8,3.25-56.76,3.25-56.76H95S106.32,339.86,98.21,369.66Z" transform="translate(0.05 0.71)"/><path class="cls-4" d="M75.92,316c-9,18.35-5.62,38.08-5.62,38.08C70.07,335.25,74.31,320.38,75.92,316Z" transform="translate(0.05 0.71)"/><path class="cls-5" d="M91.77,316c9,18.35,5.63,38.08,5.63,38.08C97.62,335.25,93.39,320.38,91.77,316Z" transform="translate(0.05 0.71)"/><path class="cls-6" d="M93.61,335.55l-.78-9.78a132.27,132.27,0,0,1-5.27,33.72l.54-13.78s-4.25,26.09-4.25,28.12c0-2-4.26-28.12-4.26-28.12l.54,13.78a132.82,132.82,0,0,1-5.27-33.72l-.78,9.78C68.57,315.3,76.29,297,76.29,297H91.41S99.13,315.3,93.61,335.55Z" transform="translate(0.05 0.71)"/><path class="cls-7" d="M112.87,314c17.53,1,40.73,43.37,40.73,43.37,19.92-43.53,18.56-77.1,11.33-100.63-8.4-27.37-24.74-41.13-24.74-41.13l-22.13,79.68Z" transform="translate(0.05 0.71)"/><path class="cls-8" d="M118.06,295.27c15.45,8.92,32,38,32,38,14.69-30.87,17.47-56.38,14.89-76.5-8.4-27.37-24.74-41.13-24.74-41.13Z" transform="translate(0.05 0.71)"/><path class="cls-9" d="M139.54,215.59s41.6,35,9.88,104.38c0,0-17.09-31.2-30-31.93Z" transform="translate(0.05 0.71)"/><path class="cls-10" d="M56.88,314c-17.53,1-40.73,43.37-40.73,43.37C-3.77,313.82-2.41,280.25,4.82,256.72c8.4-27.37,24.74-41.13,24.74-41.13l22.12,79.68Z" transform="translate(0.05 0.71)"/><path class="cls-11" d="M51.68,295.27c-15.44,8.92-32,38-32,38C5,302.35,2.24,276.84,4.82,256.72c8.4-27.37,24.74-41.13,24.74-41.13Z" transform="translate(0.05 0.71)"/><path class="cls-12" d="M30.21,215.59s-41.6,35-9.88,104.38c0,0,17.09-31.2,30-31.93Z" transform="translate(0.05 0.71)"/><path class="cls-13" d="M148.15,156.92c0,67-17.11,117-30,145-2.09,4.57-4.07,8.56-5.84,11.94a91.7,91.7,0,0,0-27.61-4.28,91.49,91.49,0,0,0-15.36,1.3l-2,.37-6.09,1.41q-1.95.53-3.87,1.14c-1.28-2.42-2.64-5.16-4.09-8.19-13-27.27-31.66-78.71-31.66-148.73C21.63,49.63,84.87-.71,84.87-.71S148.15,49.63,148.15,156.92Z" transform="translate(0.05 0.71)"/><path class="cls-14" d="M137,151.44c0,63.36-15.89,110.07-27.13,135.17a166.75,166.75,0,0,1-10.9,21,25.74,25.74,0,0,1-3.12,2.7,89.13,89.13,0,0,0-11.15-.69,91.49,91.49,0,0,0-15.36,1.3,27.15,27.15,0,0,1-4-3.31A137.12,137.12,0,0,1,58.48,295c-11-22.08-31.07-72.3-31.07-143.59,0-98,54.8-144,54.8-144S137,53.4,137,151.44Z" transform="translate(0.05 0.71)"/><path class="cls-15" d="M137,152.23C137,242.43,102,296,102,296s-6.77,7.18-15.46,7.18S71.11,296,71.11,296s-35-53.54-35-143.74S86.58,19.67,86.58,19.67,137,62,137,152.23Z" transform="translate(0.05 0.71)"/><path class="cls-16" d="M113.54,165.25a26.38,26.38,0,1,1-3.88-13.8A26.4,26.4,0,0,1,113.54,165.25Z" transform="translate(0.05 0.71)"/><path class="cls-17" d="M70.32,275.24l-1.26-2.36c-.73-1.56-2-3.82-3.26-6.83s-3-6.61-4.38-10.92S58,246,56.7,240.59l-2.31-8.43-1.17-4.47c-.31-1.52-.62-3.07-.94-4.65-.62-3.15-1.27-6.39-1.92-9.7a103.11,103.11,0,0,1-1.67-10.19c-.76-7-1.87-14.15-2.41-21.5-.3-7.36-.6-14.84-.9-22.31l-.07-2.81c0-1.17,0-1.91.07-2.89l.18-5.53.17-5.51.45-5.61c.29-3.73.53-7.45,1.15-11s.93-7.16,1.67-10.62,1.23-6.9,2.11-10.19,1.65-6.52,2.59-9.62,1.84-6.12,2.89-9,2.08-5.62,3.21-8.21a132.36,132.36,0,0,1,6.69-13.84,101.13,101.13,0,0,1,6.24-10,66.12,66.12,0,0,1,4.65-6c1.14-1.33,1.8-2,1.8-2s-.51.78-1.35,2.29-2,3.78-3.37,6.69S71.58,62,70,66.13s-3.15,8.94-4.75,14.16S62.3,91.28,61,97.37s-2.3,12.61-3.24,19.35-1.46,13.77-1.87,20.81c-.11,1.76-.23,3.53-.35,5.31l-.08,5.51-.09,5.53c0,.87,0,2,0,2.65l.11,2.73c.18,7.31.35,14.61.53,21.79.51,7.17,1,14.23,1.5,21.06.15,3.43.72,6.75,1.07,10s.76,6.49,1.12,9.61c.19,1.57.37,3.11.56,4.63s.5,3,.75,4.44c.46,2.93.91,5.76,1.34,8.47l.65,4c.26,1.29.53,2.55.78,3.77.49,2.47.95,4.81,1.38,7,.85,4.42,1.9,8.17,2.58,11.34s1.45,5.6,1.89,7.27S70.32,275.24,70.32,275.24Z" transform="translate(0.05 0.71)"/><path class="cls-18" d="M103.85,266.64l.74-1.9c.45-1.26,1-3.13,1.9-5.44l2.67-8.52c.89-3.33,1.89-7.08,3-11.18s1.9-8.61,3-13.32,1.79-9.78,2.79-15c.45-2.6.92-5.24,1.39-7.92q.47-4.05.95-8.18t1-8.3a84.12,84.12,0,0,0,.79-8.39c.38-5.63.76-11.24,1.13-16.77.09-1.35.17-2.69.26-4v-4.13c0-2.74,0-5.45,0-8.11s0-5.27,0-7.83-.35-5-.51-7.37-.34-4.73-.51-7a58.64,58.64,0,0,0-.59-6.54c-.66-4.16-1.18-8-1.64-11.43a35.87,35.87,0,0,0-.84-4.75c-.33-1.46-.63-2.79-.9-4-1.06-4.84-1.6-7.65-1.6-7.65s1,2.65,2.63,7.36c.41,1.18.85,2.49,1.34,3.92a35.47,35.47,0,0,1,1.36,4.67c.85,3.37,1.81,7.19,2.76,11.38s1.38,8.86,2.09,13.76c.3,2.45.7,5,.94,7.56.09,2.56.18,5.18.27,7.83s.18,5.37.27,8.1c0,1.37.09,2.75.13,4.13,0,1.62-.14,2.86-.21,4.31-.32,5.62-.64,11.33-1,17-.12,2.86-.5,5.69-.9,8.52s-.76,5.63-1.14,8.42-.78,5.55-1.17,8.28q-.86,4-1.69,8c-1.14,5.24-2.07,10.33-3.55,15s-2.55,9.21-4,13.25-2.77,7.73-4.08,10.95l-3.6,8.25c-1.09,2.26-2,4-2.62,5.16Z" transform="translate(0.05 0.71)"/><path class="cls-19" d="M111.24,146.18a30.66,30.66,0,1,0-27,48.69c-.79,0-1.52.08-2.27.08h-.32l.67.06c-.79.06-1.55.09-2.33.09a34.43,34.43,0,1,1,30.38-50.58,1.64,1.64,0,0,0-.2-.26C110.51,144.87,110.89,145.51,111.24,146.18Z" transform="translate(0.05 0.71)"/><path class="cls-20" d="M107.81,162.87a23,23,0,1,1-3.39-12.05A23,23,0,0,1,107.81,162.87Z" transform="translate(0.05 0.71)"/><path class="cls-21" d="M107.81,162.87a23,23,0,0,1-43.71,10.2c1.73-6.67,6.77-16.63,21.54-16.63a32.31,32.31,0,0,0,18.78-5.62A22.86,22.86,0,0,1,107.81,162.87Z" transform="translate(0.05 0.71)"/><path class="cls-22" d="M76.92,145A5.06,5.06,0,1,1,71.86,140,5.06,5.06,0,0,1,76.92,145Z" transform="translate(0.05 0.71)"/><path class="cls-23" d="M164.93,256.72c2.58,20.12-.2,45.63-14.89,76.49,0,0-14.87-26.08-29.57-36.39-2.46,5.68-4.82,10.62-6.94,14.79l-.66,2.37c17.53,1,40.73,43.37,40.73,43.37C173.52,313.82,172.16,280.25,164.93,256.72Z" transform="translate(0.05 0.71)"/><path class="cls-24" d="M149.42,320S135.76,295,123.63,289.24c-1.06,2.66-2.12,5.18-3.16,7.58,14.7,10.31,29.57,36.39,29.57,36.39,14.69-30.86,17.47-56.37,14.89-76.49a97.18,97.18,0,0,0-21.76-38.24l-.12.68C152.38,229.66,175.3,263.4,149.42,320Z" transform="translate(0.05 0.71)"/><path class="cls-25" d="M149.42,320S135.76,295,123.63,289.24c-1.06,2.66-2.12,5.18-3.16,7.58,14.7,10.31,29.57,36.39,29.57,36.39,14.69-30.86,17.47-56.37,14.89-76.49a97.18,97.18,0,0,0-21.76-38.24l-.12.68C152.38,229.66,175.3,263.4,149.42,320Z" transform="translate(0.05 0.71)"/><path class="cls-26" d="M149.42,320c25.88-56.57,3-90.31-6.37-100.81a339.13,339.13,0,0,1-19.42,70.08C135.76,295,149.42,320,149.42,320Z" transform="translate(0.05 0.71)"/><path class="cls-27" d="M149.42,320c25.88-56.57,3-90.31-6.37-100.81a339.13,339.13,0,0,1-19.42,70.08C135.76,295,149.42,320,149.42,320Z" transform="translate(0.05 0.71)"/><path class="cls-28" d="M149.42,320c25.88-56.57,3-90.31-6.37-100.81a339.13,339.13,0,0,1-19.42,70.08C135.76,295,149.42,320,149.42,320Z" transform="translate(0.05 0.71)"/><path class="cls-29" d="M19.71,333.21C5,302.35,2.24,276.84,4.82,256.72c-7.23,23.53-8.59,57.1,11.33,100.63,0,0,23.2-42.38,40.73-43.37l-.67-2.4c-2.11-4.16-4.47-9.1-6.92-14.77C34.58,307.12,19.71,333.21,19.71,333.21Z" transform="translate(0.05 0.71)"/><path class="cls-30" d="M19.71,333.21s14.87-26.09,29.58-36.4c-1-2.39-2.1-4.92-3.16-7.58C34,295,20.33,320,20.33,320c-25.91-56.62-2.91-90.37,6.39-100.84,0-.23-.07-.46-.11-.68-5.1,5.32-15.6,18.09-21.79,38.27C2.24,276.84,5,302.35,19.71,333.21Z" transform="translate(0.05 0.71)"/><path class="cls-31" d="M19.71,333.21s14.87-26.09,29.58-36.4c-1-2.39-2.1-4.92-3.16-7.58C34,295,20.33,320,20.33,320c-25.91-56.62-2.91-90.37,6.39-100.84,0-.23-.07-.46-.11-.68-5.1,5.32-15.6,18.09-21.79,38.27C2.24,276.84,5,302.35,19.71,333.21Z" transform="translate(0.05 0.71)"/><path class="cls-32" d="M20.33,320S34,295,46.13,289.23a339.24,339.24,0,0,1-19.41-70.1C17.42,229.6-5.58,263.35,20.33,320Z" transform="translate(0.05 0.71)"/><path class="cls-33" d="M20.33,320S34,295,46.13,289.23a339.24,339.24,0,0,1-19.41-70.1C17.42,229.6-5.58,263.35,20.33,320Z" transform="translate(0.05 0.71)"/><path class="cls-34" d="M20.33,320S34,295,46.13,289.23a339.24,339.24,0,0,1-19.41-70.1C17.42,229.6-5.58,263.35,20.33,320Z" transform="translate(0.05 0.71)"/><path class="cls-35" d="M82.21,7.4S111,31.59,126.88,82.26A90.39,90.39,0,0,1,139.12,90C121.64,28.55,84.87-.7,84.87-.7S48.22,28.48,30.72,89.74c1.87-1.38,3.8-2.7,5.77-3.94C52.06,32.72,82.21,7.4,82.21,7.4Z" transform="translate(0.05 0.71)"/><path class="cls-36" d="M82.21,7.4S52.06,32.72,36.49,85.8a91.45,91.45,0,0,1,12.12-6.4c14.93-40.39,38-59.73,38-59.73s23.83,20,38.74,61.79l1.56.8C111,31.59,82.21,7.4,82.21,7.4Z" transform="translate(0.05 0.71)"/><path class="cls-37" d="M82.21,7.4S52.06,32.72,36.49,85.8a91.45,91.45,0,0,1,12.12-6.4c14.93-40.39,38-59.73,38-59.73s23.83,20,38.74,61.79l1.56.8C111,31.59,82.21,7.4,82.21,7.4Z" transform="translate(0.05 0.71)"/><path class="cls-38" d="M66.49,64.51a101.13,101.13,0,0,1,6.24-10,66.12,66.12,0,0,1,4.65-6c1.14-1.33,1.8-2,1.8-2s-.51.78-1.35,2.29-2,3.78-3.37,6.69S71.58,62,70,66.13c-.89,2.31-1.76,4.81-2.63,7.46a91,91,0,0,1,58,7.87c-14.91-41.8-38.74-61.79-38.74-61.79s-23,19.34-38,59.73A90.81,90.81,0,0,1,61.25,75C63,71.13,64.75,67.62,66.49,64.51Z" transform="translate(0.05 0.71)"/><path class="cls-39" d="M66.49,64.51a101.13,101.13,0,0,1,6.24-10,66.12,66.12,0,0,1,4.65-6c1.14-1.33,1.8-2,1.8-2s-.51.78-1.35,2.29-2,3.78-3.37,6.69S71.58,62,70,66.13c-.89,2.31-1.76,4.81-2.63,7.46a91,91,0,0,1,58,7.87c-14.91-41.8-38.74-61.79-38.74-61.79s-23,19.34-38,59.73A90.81,90.81,0,0,1,61.25,75C63,71.13,64.75,67.62,66.49,64.51Z" transform="translate(0.05 0.71)"/><path class="cls-40" d="M66.49,64.51a101.13,101.13,0,0,1,6.24-10,66.12,66.12,0,0,1,4.65-6c1.14-1.33,1.8-2,1.8-2s-.51.78-1.35,2.29-2,3.78-3.37,6.69S71.58,62,70,66.13c-.89,2.31-1.76,4.81-2.63,7.46a91,91,0,0,1,58,7.87c-14.91-41.8-38.74-61.79-38.74-61.79s-23,19.34-38,59.73A90.81,90.81,0,0,1,61.25,75C63,71.13,64.75,67.62,66.49,64.51Z" transform="translate(0.05 0.71)"/><path class="cls-41" d="M74.46,55.47c1.36-2.91,2.52-5.17,3.37-6.69s1.35-2.29,1.35-2.29-.66.65-1.8,2a66.12,66.12,0,0,0-4.65,6,101.13,101.13,0,0,0-6.24,10C64.75,67.62,63,71.13,61.25,75q3-.8,6.09-1.4c.87-2.65,1.74-5.15,2.63-7.46C71.58,62,73.07,58.37,74.46,55.47Z" transform="translate(0.05 0.71)"/><path class="cls-42" d="M74.46,55.47c1.36-2.91,2.52-5.17,3.37-6.69s1.35-2.29,1.35-2.29-.66.65-1.8,2a66.12,66.12,0,0,0-4.65,6,101.13,101.13,0,0,0-6.24,10C64.75,67.62,63,71.13,61.25,75q3-.8,6.09-1.4c.87-2.65,1.74-5.15,2.63-7.46C71.58,62,73.07,58.37,74.46,55.47Z" transform="translate(0.05 0.71)"/><path class="cls-43" d="M74.46,55.47c1.36-2.91,2.52-5.17,3.37-6.69s1.35-2.29,1.35-2.29-.66.65-1.8,2a66.12,66.12,0,0,0-4.65,6,101.13,101.13,0,0,0-6.24,10C64.75,67.62,63,71.13,61.25,75q3-.8,6.09-1.4c.87-2.65,1.74-5.15,2.63-7.46C71.58,62,73.07,58.37,74.46,55.47Z" transform="translate(0.05 0.71)"/><path class="cls-44" d="M74.46,55.47c1.36-2.91,2.52-5.17,3.37-6.69s1.35-2.29,1.35-2.29-.66.65-1.8,2a66.12,66.12,0,0,0-4.65,6,101.13,101.13,0,0,0-6.24,10C64.75,67.62,63,71.13,61.25,75q3-.8,6.09-1.4c.87-2.65,1.74-5.15,2.63-7.46C71.58,62,73.07,58.37,74.46,55.47Z" transform="translate(0.05 0.71)"/><path class="cls-45" d="M127.5,323.06a102.94,102.94,0,0,0-61.64-8.86c-.76.12-1.5.26-2.25.4l-6.71,1.51c-1.44.38-2.86.78-4.27,1.22A95.93,95.93,0,0,0,43,320.85c1.64-4.33,3.38-8.44,5.17-12.31l.48-1c1.32-.48,2.66-.92,4-1.33s2.83-.85,4.27-1.22l6.71-1.52,2.25-.4a103.74,103.74,0,0,1,29.21-.66,101.2,101.2,0,0,1,18.13,3.86c3,.92,5.85,2,8.68,3.14Q124.84,315.82,127.5,323.06Z" transform="translate(0.05 0.71)"/><path class="cls-46" d="M121.88,309.38c-2.83-1.18-5.72-2.22-8.68-3.14a101.2,101.2,0,0,0-18.13-3.86,103.74,103.74,0,0,0-29.21.66l-2.25.4L56.9,305c-1.44.37-2.86.77-4.27,1.22s-2.7.85-4,1.33q2.56-5.5,5.23-10.37c14.87-27.25,31-40.42,31-40.42S97.35,267,110.52,288.11a184,184,0,0,1,9.11,16.47C120.39,306.14,121.15,307.74,121.88,309.38Z" transform="translate(0.05 0.71)"/></svg>